# Blender v2.74 (sub 0) OBJ File: ''
# www.blender.org
mtllib tgrg-hd-6-3m-x-3m-cube-with-french-doors-old.mtl
o Plane
v -2.000000 0.000000 -2.000000
v 2.000000 0.000000 -2.000000
v -2.000000 -0.000000 2.000000
v 2.000000 -0.000000 2.000000
vt 0.000000 1.000000
vt 0.000000 0.000000
vt 1.000000 0.000000
vt 1.000000 1.000000
vn 0.000000 1.000000 0.000000
usemtl b0b0b0
s 1
f 1/1/1 3/2/1 4/3/1 2/4/1
o interior_walls
v -1.465600 1.951200 1.862900
v -1.315600 -0.048800 1.862900
v -1.465600 -0.048800 1.862900
v -1.315600 1.951200 1.862900
v -1.315600 1.951200 1.912900
v -1.315600 -0.048800 1.912900
v -1.465600 -0.048800 -0.837100
v -1.465600 1.951200 -0.837100
v 1.234400 1.951200 -0.837100
v 1.234400 -0.048800 -0.837100
v 1.234400 -0.048800 1.862900
v 1.234400 1.951200 1.862900
v 1.084400 1.951200 1.862900
v 1.084400 -0.048800 1.862900
v 1.084400 -0.048800 1.912900
v 1.084400 1.951200 1.912900
v -0.115600 0.951200 -0.837100
v -0.115600 1.951200 -0.837100
v -0.115600 -0.048800 -0.837100
vt -361.434998 317.972992
vt -361.559998 316.255005
vt -361.431000 316.255005
vt -361.563995 317.971985
vt -361.606995 317.971985
vt -361.602997 316.255005
vt -363.750000 316.250000
vt -366.072998 317.963013
vt -366.069000 316.244995
vt -363.753998 317.967987
vt -362.592499 317.111511
vt -362.594482 317.970490
vt -362.590515 316.252502
vt -359.112000 316.260010
vt -359.115997 317.977997
vt -361.574005 316.255005
vt -361.447998 317.972992
vt -361.576996 317.971985
vt -361.445007 316.255005
vt -361.402008 316.255005
vt -361.404999 317.972992
vn 0.000000 0.000000 -1.000000
vn 1.000000 0.000000 0.000000
vn 0.000000 0.000000 1.000000
vn -1.000000 0.000000 0.000000
usemtl wall_beige
s 1
f 5/5/2 6/6/2 7/7/2
f 6/6/2 5/5/2 8/8/2
f 9/9/3 6/6/3 8/8/3
f 6/6/3 9/9/3 10/10/3
f 11/11/3 5/12/3 7/13/3
f 5/12/3 11/11/3 12/14/3
f 11/11/4 21/15/4 22/16/4 12/14/4
f 13/5/4 21/15/4 23/17/4 14/7/4
f 15/18/5 13/5/5 14/7/5
f 13/5/5 15/18/5 16/19/5
f 15/20/2 17/21/2 16/22/2
f 17/21/2 15/20/2 18/23/2
f 19/24/5 17/21/5 18/23/5
f 17/21/5 19/24/5 20/25/5
f 21/15/4 13/5/4 22/16/4
f 21/15/4 11/11/4 23/17/4
o Box
v -0.500000 0.500000 -1.410600
v -0.500000 0.500000 -0.410600
v -0.500000 -0.500000 -1.410600
v -0.500000 -0.500000 -0.410600
v -0.000000 0.500000 -0.410600
v 0.000000 0.500000 -1.410600
v 0.000000 -0.500000 -1.410600
v 0.000000 -0.500000 -0.410600
vt 0.000000 1.000000
vt 0.000000 0.000000
vt 1.000000 0.000000
vt 1.000000 1.000000
vt 0.500000 0.000000
vt 0.500000 1.000000
vn -1.000000 0.000000 0.000000
vn 0.000000 1.000000 -0.000000
vn 0.000000 -1.000000 0.000000
vn 0.000000 0.000000 1.000000
vn 0.000000 0.000000 -1.000000
usemtl b0b0b0
s 1
f 24/26/6 26/27/6 27/28/6 25/29/6
f 24/26/7 25/27/7 28/30/7 29/31/7
f 27/26/8 26/27/8 30/30/8 31/31/8
f 25/26/9 27/27/9 31/30/9 28/31/9
f 30/30/10 26/28/10 24/29/10 29/31/10
